<svg width="190" height="190" viewBox="0 0 190 190" fill="none" xmlns="http://www.w3.org/2000/svg">
<path d="M189.721 94.7787C189.721 143.315 153.206 183.328 106.13 188.893C102.435 189.331 98.6745 189.557 94.8604 189.557C91.0463 189.557 87.2862 189.331 83.591 188.893C61.9005 186.33 42.4519 176.452 27.7844 161.797C10.6157 144.648 0 120.952 0 94.7787C0 68.6052 10.6157 44.909 27.7844 27.7605C44.9478 10.6065 68.6642 0 94.8604 0C121.057 0 144.773 10.6065 161.936 27.7605C179.105 44.909 189.721 68.6052 189.721 94.7787Z" fill="#1574EA"/>
<path d="M106.13 75.7031V96.0903H134.168V118.604H106.13V188.893C102.435 189.331 98.6745 189.557 94.8604 189.557C91.0464 189.557 87.2863 189.331 83.5911 188.893V118.604H55.5527V96.0903H83.5911V70.8884C83.5911 52.9949 98.1073 38.4912 116.016 38.4912H134.168V61.0105H120.84C112.715 61.0105 106.135 67.5903 106.135 75.7031H106.13Z" fill="white"/>
</svg>
