<svg width="190" height="190" viewBox="0 0 190 190" fill="none" xmlns="http://www.w3.org/2000/svg">
<path d="M94.8604 0H94.855C42.4681 0 0 42.4315 0 94.7733V94.7787C0 147.121 42.4681 189.552 94.855 189.552H94.8604C147.247 189.552 189.715 147.121 189.715 94.7787V94.7733C189.715 42.4315 147.247 0 94.8604 0Z" fill="url(#paint0_linear_43_11)"/>
<path d="M126.151 155.865H63.5645C47.1088 155.865 33.7163 142.489 33.7163 126.042V63.5096C33.7163 47.0681 47.1034 33.6871 63.5645 33.6871H126.151C142.607 33.6871 155.999 47.0627 155.999 63.5096V126.042C155.999 142.484 142.612 155.865 126.151 155.865ZM63.559 41.8864C51.6252 41.8864 41.9117 51.586 41.9117 63.515V126.048C41.9117 137.971 51.6198 147.676 63.559 147.676H126.146C138.079 147.676 147.793 137.977 147.793 126.048V63.515C147.793 51.5914 138.085 41.8864 126.146 41.8864H63.559Z" fill="white"/>
<path d="M94.8552 128.428C76.2872 128.428 61.1768 113.336 61.1768 94.7788C61.1768 76.2214 76.2818 61.1293 94.8552 61.1293C113.429 61.1293 128.534 76.2214 128.534 94.7788C128.534 113.336 113.429 128.428 94.8552 128.428ZM94.8552 69.323C80.809 69.323 69.3775 80.7393 69.3775 94.7788C69.3775 108.818 80.8036 120.234 94.8552 120.234C108.907 120.234 120.333 108.818 120.333 94.7788C120.333 80.7393 108.907 69.323 94.8552 69.323Z" fill="white"/>
<path d="M131.327 67.3366C134.895 67.3366 137.788 64.4463 137.788 60.881C137.788 57.3156 134.895 54.4253 131.327 54.4253C127.758 54.4253 124.865 57.3156 124.865 60.881C124.865 64.4463 127.758 67.3366 131.327 67.3366Z" fill="white"/>
<defs>
<linearGradient id="paint0_linear_43_11" x1="0" y1="94.7787" x2="189.715" y2="94.7787" gradientUnits="userSpaceOnUse">
<stop stop-color="#FCD65B"/>
<stop offset="0.47" stop-color="#DC486A"/>
<stop offset="0.96" stop-color="#672FC8"/>
</linearGradient>
</defs>
</svg>
