<svg width="8" height="8" viewBox="0 0 8 8" fill="none" xmlns="http://www.w3.org/2000/svg">
<path fill-rule="evenodd" clip-rule="evenodd" d="M7.87552 7.20918C7.80163 7.27685 7.70534 7.30965 7.60681 7.30965C7.50828 7.30965 7.41199 7.27685 7.3381 7.20918L5.49294 5.53606C4.9152 5.94204 4.19416 6.18399 3.41041 6.18399C1.52942 6.18399 0 4.79792 0 3.09199C0 1.38607 1.52942 0 3.41041 0C5.2914 0 6.82082 1.38607 6.82082 3.09199C6.82082 3.83834 6.52748 4.52316 6.03932 5.05831L7.87328 6.72119C8.02107 6.85447 8.02107 7.07386 7.87328 7.20713L7.87552 7.20918ZM3.41265 0.688929C1.95041 0.688929 0.761352 1.76744 0.761352 3.09405C0.761352 4.42065 1.95041 5.49915 3.41265 5.49915C4.8749 5.49915 6.06395 4.42065 6.06395 3.09405C6.06395 1.76744 4.8749 0.688929 3.41265 0.688929Z" fill="url(#paint0_linear_26_19)"/>
<path fill-rule="evenodd" clip-rule="evenodd" d="M7.87552 7.20918C7.80163 7.27685 7.70534 7.30965 7.60681 7.30965C7.50828 7.30965 7.41199 7.27685 7.3381 7.20918L5.49294 5.53606C4.9152 5.94204 4.19416 6.18399 3.41041 6.18399C1.52942 6.18399 0 4.79792 0 3.09199C0 1.38607 1.52942 0 3.41041 0C5.2914 0 6.82082 1.38607 6.82082 3.09199C6.82082 3.83834 6.52748 4.52316 6.03932 5.05831L7.87328 6.72119C8.02107 6.85447 8.02107 7.07386 7.87328 7.20713L7.87552 7.20918ZM3.41265 0.688929C1.95041 0.688929 0.761352 1.76744 0.761352 3.09405C0.761352 4.42065 1.95041 5.49915 3.41265 5.49915C4.8749 5.49915 6.06395 4.42065 6.06395 3.09405C6.06395 1.76744 4.8749 0.688929 3.41265 0.688929Z" fill="black" fill-opacity="0.2"/>
<defs>
<linearGradient id="paint0_linear_26_19" x1="3.99206" y1="7.30965" x2="3.99206" y2="0" gradientUnits="userSpaceOnUse">
<stop offset="0.15" stop-color="#C1D898"/>
<stop offset="0.75" stop-color="#ACB365"/>
</linearGradient>
</defs>
</svg>
