<svg width="190" height="190" viewBox="0 0 190 190" fill="none" xmlns="http://www.w3.org/2000/svg">
<path d="M189.299 94.5681C189.299 42.3396 146.923 0 94.6495 0C42.3759 0 0 42.3396 0 94.5681C0 146.797 42.3759 189.136 94.6495 189.136C146.923 189.136 189.299 146.797 189.299 94.5681Z" fill="black"/>
<path d="M122.575 54.8031C122.413 54.6843 122.251 54.5602 122.089 54.4253L120.786 53.2162C116.81 49.0545 115.049 42.7229 115.049 42.7229H119.809C119.809 42.7229 119.333 48.0721 122.575 54.7977V54.8031Z" fill="#FF004F"/>
<path d="M140.829 61.9335V69.0639C127.912 66.3218 123.174 56.1741 122.639 54.9381C122.639 54.9381 122.639 54.9381 122.639 54.9327C122.639 54.9273 122.64 54.9219 122.634 54.9165C122.613 54.8625 122.596 54.8301 122.596 54.8193C122.715 54.9327 130.662 62.6892 140.84 61.9389L140.829 61.9335Z" fill="#00F7EF"/>
<path d="M146.583 69.4741V87.902C146.583 87.902 132.92 90.8762 119.614 79.3844V117.471C119.614 117.471 120.338 132.633 110.203 142.754C100.068 152.874 88.9397 155.541 79.2586 153.932C69.5775 152.324 60.5285 147.417 54.3428 137.577C54.5102 137.755 67.0275 151.288 86.2762 146.478C114.061 139.542 113.866 112.267 113.866 112.267V72.4429C127.15 83.4434 140.835 80.9605 140.835 80.9605V69.0585C140.835 69.0585 143.282 69.663 146.583 69.4687V69.4741Z" fill="#FF004F"/>
<path d="M140.829 69.0639V80.9659C140.829 80.9659 127.145 83.4489 113.861 72.4483V112.273C113.861 112.273 114.061 139.547 86.2708 146.483C67.0221 151.287 54.5046 137.761 54.3372 137.583C54.3372 137.583 54.3319 137.572 54.3211 137.561C53.9915 137.108 49.0591 130.107 48.9672 119.409V119.382C48.7836 113.352 49.6642 108.753 53.0947 102.039C53.0947 102.039 53.0947 102.039 53.0947 102.033C56.8872 94.2552 62.8837 89.6455 68.54 86.9142C75.9305 83.3464 82.7376 82.9847 83.2779 82.9577C83.2995 82.9577 83.3103 82.9577 83.3103 82.9577V96.4304C83.2023 96.4034 81.0845 95.9123 78.259 96.1066C78.2482 96.1066 78.2373 96.1066 78.2211 96.1066C69.8636 96.4898 66.7734 101.726 65.9198 102.848C64.915 104.176 62.6785 107.307 63.1701 114.016C63.6509 120.623 69.6369 125.017 69.826 125.152C69.826 125.152 69.826 125.157 69.826 125.168C69.907 125.405 70.9387 128.261 73.2563 130.917C73.2671 130.927 73.2727 130.938 73.2835 130.944C74.9474 132.844 77.2758 134.63 80.3984 135.278C80.4038 135.278 80.4145 135.278 80.4253 135.283C88.1345 136.87 99.2256 134.441 100.56 118.291V42.7284H115.033C115.033 42.7284 116.794 49.06 120.77 53.2217C121.181 53.6481 121.613 54.0583 122.072 54.4308C122.229 54.5603 122.391 54.6844 122.559 54.8086C122.559 54.8086 122.569 54.814 122.569 54.8194C122.569 54.8248 122.585 54.8571 122.607 54.9165C122.607 54.9165 122.607 54.9273 122.613 54.9327C122.613 54.9327 122.613 54.9327 122.613 54.9381C123.147 56.1742 127.891 66.3219 140.802 69.0639H140.829Z" fill="white"/>
<path d="M94.8228 34.9989H114.055C114.055 34.9989 114.137 40.4829 115.05 42.7284H100.577V118.291C100.577 122.075 99.5177 125.799 97.4486 128.962C95.1094 132.53 91.1547 135.969 84.6016 135.85C72.927 135.634 69.8477 125.152 69.8477 125.152C69.8477 125.152 76.8439 130.215 85.6984 126.215C94.5529 122.215 94.931 112.564 94.931 111.582C94.931 110.599 94.8337 35.0043 94.8337 35.0043L94.8228 34.9989Z" fill="#00F7EF"/>
<path d="M83.3213 82.9468V76.2105C83.3213 76.2105 61.3983 71.7034 48.1787 93.5642C36.1314 113.493 49.5292 134.22 54.3373 137.572C54.3373 137.572 43.8947 121.238 52.0685 104.041C62.1061 82.9415 83.3213 82.9414 83.3213 82.9414V82.9468Z" fill="#00F7EF"/>
<path d="M89.0747 83.1466V103.555C89.0747 103.555 81.1927 100.867 73.9805 107.28C66.7683 113.692 69.1561 123.462 69.8422 125.152C69.6585 125.017 63.6674 120.623 63.1866 114.016C62.7003 107.307 64.9314 104.176 65.9363 102.848C66.7845 101.72 69.8746 96.4898 78.2375 96.1066C78.2483 96.1066 78.259 96.1066 78.2752 96.1066C79.7825 96.0418 81.4573 96.1281 83.3265 96.4303V82.9576C83.3265 82.9576 87.8214 82.9199 89.0747 83.1574V83.1466Z" fill="#FF004F"/>
</svg>
