<svg width="18" height="16" viewBox="0 0 18 16" fill="none" xmlns="http://www.w3.org/2000/svg">
<path d="M3.5 0.500001H0.5M11.9 2.5V8.5M14.9 5.5H8.9M3.73999 0.5L5.9 8.34C6.08029 8.95825 6.45474 9.50207 6.96799 9.89106C7.48124 10.28 8.10604 10.4936 8.75 10.5H17.49V0.5H3.73999ZM10.5 14C10.5 14.8284 9.82843 15.5 9 15.5C8.17157 15.5 7.5 14.8284 7.5 14C7.5 13.1716 8.17157 12.5 9 12.5C9.82843 12.5 10.5 13.1716 10.5 14ZM17.5 14C17.5 14.8284 16.8284 15.5 16 15.5C15.1716 15.5 14.5 14.8284 14.5 14C14.5 13.1716 15.1716 12.5 16 12.5C16.8284 12.5 17.5 13.1716 17.5 14Z" stroke="#1C1C1E" stroke-linecap="round" stroke-linejoin="round"/>
</svg>
