<svg width="17" height="17" viewBox="0 0 17 17" fill="none" xmlns="http://www.w3.org/2000/svg">
<path d="M5.59875 15.3962C5.98526 15.3962 6.29858 15.0829 6.29858 14.6964C6.29858 14.3099 5.98526 13.9966 5.59875 13.9966C5.21225 13.9966 4.89893 14.3099 4.89893 14.6964C4.89893 15.0829 5.21225 15.3962 5.59875 15.3962Z" stroke="white" stroke-width="1.39966" stroke-linecap="round" stroke-linejoin="round"/>
<path d="M13.2965 15.3962C13.683 15.3962 13.9963 15.0829 13.9963 14.6964C13.9963 14.3099 13.683 13.9966 13.2965 13.9966C12.91 13.9966 12.5967 14.3099 12.5967 14.6964C12.5967 15.0829 12.91 15.3962 13.2965 15.3962Z" stroke="white" stroke-width="1.39966" stroke-linecap="round" stroke-linejoin="round"/>
<path d="M1.43457 1.43463H2.83423L4.69577 10.1265C4.76406 10.4448 4.94118 10.7294 5.19665 10.9312C5.45211 11.133 5.76994 11.2395 6.09543 11.2322H12.9398C13.2583 11.2317 13.5671 11.1226 13.8153 10.9228C14.0634 10.723 14.2359 10.4446 14.3044 10.1335L15.4591 4.93377H3.58304" stroke="white" stroke-width="1.39966" stroke-linecap="round" stroke-linejoin="round"/>
</svg>
