<svg width="36" height="36" viewBox="0 0 36 36" fill="none" xmlns="http://www.w3.org/2000/svg">
<path d="M35.8798 17.9581C35.8798 27.1544 28.9742 34.7359 20.0712 35.7903C19.3723 35.8732 18.6612 35.9161 17.9399 35.9161C17.2186 35.9161 16.5075 35.8732 15.8087 35.7903C11.7066 35.3045 8.02847 33.433 5.25457 30.6562C2.00763 27.407 0 22.9173 0 17.9581C0 12.9989 2.00763 8.50908 5.25457 5.25988C8.50049 2.00965 12.9857 0 17.9399 0C22.8941 0 27.3793 2.00965 30.6253 5.25988C33.8722 8.50908 35.8798 12.9989 35.8798 17.9581Z" fill="#1574EA"/>
<path d="M20.071 14.3437V18.2066H25.3735V22.4724H20.071V35.7903C19.3721 35.8732 18.661 35.9161 17.9397 35.9161C17.2184 35.9161 16.5073 35.8732 15.8084 35.7903V22.4724H10.5059V18.2066H15.8084V13.4315C15.8084 10.0411 18.5537 7.29306 21.9407 7.29306H25.3735V11.5599H22.853C21.3164 11.5599 20.072 12.8066 20.072 14.3437H20.071Z" fill="white"/>
</svg>
