<svg width="36" height="36" viewBox="0 0 36 36" fill="none" xmlns="http://www.w3.org/2000/svg">
<path d="M17.9399 0H17.9389C8.03152 0 0 8.03965 0 17.9571V17.9581C0 27.8755 8.03152 35.9151 17.9389 35.9151H17.9399C27.8473 35.9151 35.8788 27.8755 35.8788 17.9581V17.9571C35.8788 8.03965 27.8473 0 17.9399 0Z" fill="url(#paint0_linear_678_468)"/>
<path d="M23.8576 29.5323H12.0213C8.90924 29.5323 6.37646 26.9979 6.37646 23.8817V12.0334C6.37646 8.91815 8.90822 6.38281 12.0213 6.38281H23.8576C26.9697 6.38281 29.5025 8.91713 29.5025 12.0334V23.8817C29.5025 26.9969 26.9707 29.5323 23.8576 29.5323ZM12.0203 7.93635C9.76338 7.93635 7.92638 9.77418 7.92638 12.0344V23.8827C7.92638 26.1419 9.76236 27.9808 12.0203 27.9808H23.8566C26.1135 27.9808 27.9505 26.1429 27.9505 23.8827V12.0344C27.9505 9.7752 26.1146 7.93635 23.8566 7.93635H12.0203Z" fill="white"/>
<path d="M17.9386 24.3337C14.427 24.3337 11.5693 21.4742 11.5693 17.9581C11.5693 14.4419 14.426 11.5824 17.9386 11.5824C21.4512 11.5824 24.3078 14.4419 24.3078 17.9581C24.3078 21.4742 21.4512 24.3337 17.9386 24.3337ZM17.9386 13.1349C15.2822 13.1349 13.1203 15.2979 13.1203 17.9581C13.1203 20.6182 15.2811 22.7812 17.9386 22.7812C20.596 22.7812 22.7569 20.6182 22.7569 17.9581C22.7569 15.2979 20.596 13.1349 17.9386 13.1349Z" fill="white"/>
<path d="M24.8362 12.7585C25.5111 12.7585 26.0582 12.2109 26.0582 11.5353C26.0582 10.8598 25.5111 10.3122 24.8362 10.3122C24.1613 10.3122 23.6143 10.8598 23.6143 11.5353C23.6143 12.2109 24.1613 12.7585 24.8362 12.7585Z" fill="white"/>
<defs>
<linearGradient id="paint0_linear_678_468" x1="0" y1="17.9581" x2="35.8788" y2="17.9581" gradientUnits="userSpaceOnUse">
<stop stop-color="#FCD65B"/>
<stop offset="0.47" stop-color="#DC486A"/>
<stop offset="0.96" stop-color="#672FC8"/>
</linearGradient>
</defs>
</svg>
