<svg width="36" height="36" viewBox="0 0 36 36" fill="none" xmlns="http://www.w3.org/2000/svg">
<path d="M35.8001 17.9182C35.8001 8.02224 27.786 0 17.9 0C8.0141 0 0 8.02224 0 17.9182C0 27.8141 8.0141 35.8364 17.9 35.8364C27.786 35.8364 35.8001 27.8141 35.8001 17.9182Z" fill="black"/>
<path d="M23.181 10.3838C23.1503 10.3613 23.1197 10.3377 23.0891 10.3122L22.8428 10.0831C22.0908 9.29456 21.7578 8.09488 21.7578 8.09488H22.6579C22.6579 8.09488 22.568 9.10841 23.181 10.3827V10.3838Z" fill="#FF004F"/>
<path d="M26.6333 11.7348V13.0858C24.1904 12.5663 23.2944 10.6435 23.1932 10.4093C23.1932 10.4093 23.1932 10.4093 23.1932 10.4083C23.1932 10.4073 23.1933 10.4063 23.1922 10.4052C23.1882 10.395 23.1851 10.3889 23.1851 10.3868C23.2075 10.4083 24.7104 11.878 26.6353 11.7358L26.6333 11.7348Z" fill="#00F7EF"/>
<path d="M27.7212 13.1635V16.6551C27.7212 16.6551 25.1374 17.2187 22.6209 15.0413V22.2576C22.6209 22.2576 22.7579 25.1305 20.8412 27.0481C18.9245 28.9657 16.8198 29.4709 14.9889 29.1661C13.158 28.8614 11.4467 27.9317 10.2769 26.0673C10.3085 26.101 12.6758 28.665 16.3161 27.7538C21.5706 26.4396 21.5338 21.2717 21.5338 21.2717V13.726C24.0462 15.8103 26.6342 15.3399 26.6342 15.3399V13.0848C26.6342 13.0848 27.097 13.1993 27.7212 13.1625V13.1635Z" fill="#FF004F"/>
<path d="M26.6336 13.0858V15.3409C26.6336 15.3409 24.0456 15.8114 21.5333 13.7271V21.2727C21.5333 21.2727 21.5711 26.4406 16.3155 27.7548C12.6752 28.665 10.3079 26.1021 10.2762 26.0683C10.2762 26.0683 10.2752 26.0663 10.2732 26.0642C10.2109 25.9783 9.27805 24.6518 9.26068 22.6248V22.6197C9.22594 21.4773 9.39249 20.6059 10.0413 19.3337C10.0413 19.3337 10.0413 19.3337 10.0413 19.3326C10.7585 17.8589 11.8926 16.9855 12.9623 16.468C14.3599 15.792 15.6473 15.7234 15.7495 15.7183C15.7536 15.7183 15.7556 15.7183 15.7556 15.7183V18.271C15.7352 18.2659 15.3347 18.1729 14.8003 18.2097C14.7983 18.2097 14.7962 18.2097 14.7931 18.2097C13.2126 18.2823 12.6282 19.2743 12.4667 19.4871C12.2767 19.7387 11.8537 20.3318 11.9467 21.6031C12.0376 22.8549 13.1697 23.6874 13.2055 23.713C13.2055 23.713 13.2055 23.714 13.2055 23.716C13.2208 23.761 13.4159 24.3021 13.8542 24.8052C13.8563 24.8073 13.8573 24.8093 13.8593 24.8104C14.174 25.1704 14.6144 25.5089 15.2049 25.6316C15.2059 25.6316 15.208 25.6316 15.21 25.6326C16.668 25.9333 18.7655 25.4731 19.0179 22.4131V8.09592H21.755C21.755 8.09592 22.0881 9.29559 22.84 10.0841C22.9177 10.1649 22.9994 10.2426 23.0863 10.3132C23.1159 10.3378 23.1465 10.3613 23.1782 10.3848C23.1782 10.3848 23.1803 10.3858 23.1803 10.3868C23.1803 10.3879 23.1833 10.394 23.1874 10.4052C23.1874 10.4052 23.1874 10.4073 23.1884 10.4083C23.1884 10.4083 23.1884 10.4083 23.1884 10.4093C23.2896 10.6435 24.1866 12.5663 26.6285 13.0858H26.6336Z" fill="white"/>
<path d="M17.9328 6.63138H21.57C21.57 6.63138 21.5854 7.67045 21.758 8.09591H19.0209V22.4131C19.0209 23.13 18.8206 23.8357 18.4293 24.435C17.9869 25.111 17.239 25.7625 15.9997 25.74C13.7918 25.6991 13.2095 23.713 13.2095 23.713C13.2095 23.713 14.5326 24.6723 16.2072 23.9144C17.8817 23.1566 17.9532 21.328 17.9532 21.1418C17.9532 20.9557 17.9348 6.6324 17.9348 6.6324L17.9328 6.63138Z" fill="#00F7EF"/>
<path d="M15.7575 15.7162V14.4399C15.7575 14.4399 11.6114 13.5859 9.11131 17.728C6.83293 21.5039 9.36672 25.4312 10.276 26.0663C10.276 26.0663 8.30112 22.9715 9.84695 19.7131C11.7453 15.7152 15.7575 15.7152 15.7575 15.7152V15.7162Z" fill="#00F7EF"/>
<path d="M16.8454 15.7541V19.621C16.8454 19.621 15.3548 19.1117 13.9908 20.3267C12.6268 21.5417 13.0784 23.3928 13.2082 23.713C13.1734 23.6874 12.0404 22.8549 11.9495 21.6031C11.8575 20.3318 12.2794 19.7386 12.4695 19.487C12.6299 19.2733 13.2143 18.2823 14.7959 18.2097C14.7979 18.2097 14.8 18.2097 14.803 18.2097C15.0881 18.1974 15.4048 18.2137 15.7583 18.271V15.7183C15.7583 15.7183 16.6084 15.7111 16.8454 15.7561V15.7541Z" fill="#FF004F"/>
</svg>
